:SAMPLES-PER-SECOND 30
:FULLY-SPECIFIED
:DEGREES
577
root  31.4864 38.6267 23.4269 178.502 10.8344 -176.924
RightUpLeg  12.1538 -29.7498 -10.7973
RightLeg  36.3721 -4.51607 -3.77309
RightFoot  -0.587398 -2.18449 23.5898
RightToes  -5.8209e-011 0 -3.6325e-017
Spine  3.16522 3.92651 6.51344
Spine1  7.60477 6.55675 -8.81807
HEad  39.1734 -32.1492 172.312
LeftShoulder1  6.85379 -9.78327 -44.9253
LeftArm  -9.12727 31.047 -15.3668
LeftForeArm  16.0318 -4.75153 -3.76702
LeftHand  -0.244104 0.0205437 5.32207
RightShoulder  5.95242 9.25395 40.4907
RightArm  -5.10551 -14.6464 32.57
RightForeArm  6.00517 15.22 5.86239
RightHand  -0.547118 -0.205903 -12.2646
LeftUpLeg  -14.0927 7.49155 -7.98758
LeftLeg  7.9292 41.867 -3.06393
LeftFoot  -8.11599 -0.518892 19.8702
LeftToes  1.76439e-010 -1.07097e-011 2.32476e-011
578
root  31.7904 38.6532 22.6321 177.547 7.96786 -177.718
RightUpLeg  4.51221 -24.4221 -10.0634
RightLeg  48.806 -2.66945 -3.52073
RightFoot  9.9657 -3.35046 18.0005
RightToes  -5.8209e-011 0 -3.6325e-017
Spine  4.85314 3.37106 6.24316
Spine1  6.98107 6.29788 -10.2227
HEad  39.2548 -32.3089 171.226
LeftShoulder1  6.99433 -9.93871 -45.3337
LeftArm  -9.60241 28.9424 -16.494
LeftForeArm  16.9661 -4.29552 -3.81301
LeftHand  -0.244104 0.0205437 5.32207
RightShoulder  5.94019 9.32648 40.1522
RightArm  -4.89546 -15.3025 35.1781
RightForeArm  5.64122 16.2264 5.63656
RightHand  -0.470019 -0.556546 -11.2913
LeftUpLeg  -12.7719 8.24289 -9.3797
LeftLeg  10.8625 38.6192 -0.678774
LeftFoot  -9.41697 -0.242952 17.711
LeftToes  1.76439e-010 -1.07097e-011 2.32476e-011
579
root  32.0243 38.6227 21.9117 176.585 5.03329 -178.177
RightUpLeg  -2.36016 -18.8895 -9.39024
RightLeg  58.5348 -0.495368 -1.39468
RightFoot  14.1189 -2.99696 13.5584
RightToes  -5.8209e-011 0 -3.6325e-017
Spine  6.3978 2.97716 6.11261
Spine1  7.11862 6.00112 -11.0354
HEad  39.6279 -32.2854 169.545
LeftShoulder1  7.13152 -10.0321 -45.9249
LeftArm  -10.4223 26.2859 -18.2759
LeftForeArm  18.7061 -5.32221 -3.95938
LeftHand  -0.244104 0.0205437 5.32207
RightShoulder  6.04608 9.58224 40.0606
RightArm  -0.85362 -15.4804 36.1332
RightForeArm  4.24361 18.7186 5.27214
RightHand  -0.466033 -0.463835 -10.9855
LeftUpLeg  -11.1016 6.11172 -9.83575
LeftLeg  12.8689 38.1331 0.554151
LeftFoot  -11.0268 0.0212247 16.9254
LeftToes  1.76439e-010 -1.07097e-011 2.32476e-011
580
root  32.245 38.7251 21.1409 175.857 0.998657 -178.087
RightUpLeg  -7.47296 -14.8817 -8.9978
RightLeg  64.3167 -0.118553 -0.917372
RightFoot  12.9364 -2.39703 11.5211
RightToes  -5.8209e-011 0 -3.6325e-017
Spine  7.2565 2.43277 5.61923
Spine1  7.46201 5.20379 -10.2377
HEad  39.9442 -31.735 168.496
LeftShoulder1  7.2838 -10.1181 -46.6291
LeftArm  -11.1598 23.2473 -20.3591
LeftForeArm  20.9815 -7.31899 -4.24894
LeftHand  -0.244104 0.0205437 5.32207
RightShoulder  6.15114 9.74244 40.2835
RightArm  3.72969 -15.3833 35.6263
RightForeArm  4.46137 21.8777 4.77981
RightHand  -0.509691 -0.097238 -11.2149
LeftUpLeg  -8.84093 4.53422 -10.1013
LeftLeg  13.1417 35.929 0.779934
LeftFoot  -11.938 0.159677 16.6967
LeftToes  1.76439e-010 -1.07097e-011 2.32476e-011
581
root  32.435 38.9169 20.3685 175.482 -4.28964 -177.49
RightUpLeg  -11.6259 -12.4631 -8.60244
RightLeg  66.3996 -0.807701 -2.69397
RightFoot  10.9451 -1.7524 9.26285
RightToes  -5.8209e-011 0 -3.6325e-017
Spine  7.71002 1.70502 5.14634
Spine1  7.5547 4.06413 -8.72486
HEad  40.1684 -30.3488 169.056
LeftShoulder1  7.49366 -10.3266 -47.2649
LeftArm  -11.189 19.829 -22.4525
LeftForeArm  23.3704 -9.84163 -4.65318
LeftHand  -0.244104 0.0205437 5.32207
RightShoulder  6.11992 9.6466 40.3783
RightArm  5.12554 -15.339 34.9007
RightForeArm  6.83767 24.2985 4.80613
RightHand  -0.529217 0.0189327 -11.4047
LeftUpLeg  -6.61907 3.59579 -10.0693
LeftLeg  12.7482 31.7194 0.6657
LeftFoot  -12.2178 0.195568 15.7957
LeftToes  1.76439e-010 -1.07097e-011 2.32476e-011
582
root  32.59 39.1004 19.6423 175.219 -9.91632 -176.596
RightUpLeg  -15.3925 -10.2893 -7.91737
RightLeg  65.7186 -1.92603 -5.2978
RightFoot  9.59894 -0.893163 5.17164
RightToes  -5.8209e-011 0 -3.6325e-017
Spine  8.23705 1.05589 5.03718
Spine1  7.41697 3.07914 -7.51938
HEad  40.9431 -28.3715 170.974
LeftShoulder1  7.77817 -10.6774 -47.8586
LeftArm  -9.51121 16.211 -24.4149
LeftForeArm  24.6172 -12.9658 -4.88748
LeftHand  -0.244104 0.0205437 5.32207
RightShoulder  6.01636 9.4918 40.1491
RightArm  4.70954 -15.3394 34.6248
RightForeArm  7.45838 25.3623 5.04597
RightHand  -0.494537 -0.327498 -11.3559
LeftUpLeg  -4.66494 2.70756 -9.58702
LeftLeg  12.3017 26.9708 0.353102
LeftFoot  -12.3741 0.212684 15.1877
LeftToes  1.76439e-010 -1.07097e-011 2.32476e-011
583
root  32.7232 39.2667 18.9355 174.823 -15.3513 -175.598
RightUpLeg  -18.3472 -8.1078 -7.18661
RightLeg  62.591 -3.4568 -7.74438
RightFoot  7.6129 -0.207202 1.56359
RightToes  -5.8209e-011 0 -3.6325e-017
Spine  8.90552 0.565735 5.04344
Spine1  7.30404 2.32199 -6.47303
HEad  42.6047 -26.3121 173.366
LeftShoulder1  8.11541 -11.0952 -48.5146
LeftArm  -5.81796 12.6108 -26.1687
LeftForeArm  24.2041 -16.6225 -4.6625
LeftHand  -0.244104 0.0205437 5.32207
RightShoulder  5.97397 9.4895 39.848
RightArm  4.32966 -15.0422 34.4449
RightForeArm  5.4832 25.1887 5.10898
RightHand  -0.430097 -0.954326 -11.2079
LeftUpLeg  -2.72431 2.13319 -8.76419
LeftLeg  11.6084 22.1587 -0.258911
LeftFoot  -12.4943 0.232785 15.5292
LeftToes  1.76439e-010 -1.07097e-011 2.32476e-011
584
root  32.8291 39.4252 18.2134 174.168 -20.7367 -174.627
RightUpLeg  -20.078 -6.74427 -6.75048
RightLeg  57.033 -5.11303 -8.8819
RightFoot  5.23679 -0.0754519 0.787081
RightToes  -5.8209e-011 0 -3.6325e-017
Spine  9.70954 0.123271 4.94831
Spine1  7.29636 1.61691 -5.30555
HEad  44.5907 -24.2621 175.66
LeftShoulder1  8.4606 -11.5237 -49.1425
LeftArm  -1.0512 9.10137 -27.7622
LeftForeArm  23.3409 -20.2459 -4.08089
LeftHand  -0.244104 0.0205437 5.32207
RightShoulder  5.98502 9.56845 39.6644
RightArm  4.20766 -14.2842 34.0665
RightForeArm  3.64302 23.9943 4.954
RightHand  -0.3873 -1.37353 -11.0916
LeftUpLeg  -0.717859 1.96402 -7.86403
LeftLeg  10.9609 17.162 -0.678172
LeftFoot  -12.4899 0.234331 15.7345
LeftToes  1.76439e-010 -1.07097e-011 2.32476e-011
585
root  32.879 39.5404 17.4503 173.257 -25.7667 -173.833
RightUpLeg  -20.7017 -6.0069 -6.54448
RightLeg  49.3019 -6.14522 -7.96619
RightFoot  3.91227 -0.177695 1.52282
RightToes  -5.8209e-011 0 -3.6325e-017
Spine  10.6741 -0.19591 4.96102
Spine1  7.3079 1.13859 -4.45532
HEad  46.2241 -22.0602 177.644
LeftShoulder1  8.75298 -11.9207 -49.5356
LeftArm  2.79691 5.84788 -29.3711
LeftForeArm  24.0201 -23.3034 -3.78211
LeftHand  -0.244104 0.0205437 5.32207
RightShoulder  5.97629 9.59673 39.507
RightArm  3.80174 -13.3056 33.6037
RightForeArm  3.82119 21.9422 4.77995
RightHand  -0.399805 -1.22136 -11.0522
LeftUpLeg  1.24265 1.85211 -7.12294
LeftLeg  10.9142 12.5052 -0.577353
LeftFoot  -12.6767 0.256159 15.3318
LeftToes  1.76439e-010 -1.07097e-011 2.32476e-011
586
root  32.8516 39.5477 16.6046 172.55 -29.6362 -173.568
RightUpLeg  -20.6809 -5.00908 -6.47101
RightLeg  39.9212 -6.24565 -5.84843
RightFoot  3.42016 -0.287914 2.40416
RightToes  -5.8209e-011 0 -3.6325e-017
Spine  11.3895 -0.141355 4.91013
Spine1  7.34625 1.19071 -4.30547
HEad  47.3949 -19.9627 179.213
LeftShoulder1  8.91906 -12.1929 -49.6017
LeftArm  4.42707 3.29273 -31.0907
LeftForeArm  26.4952 -25.7999 -4.11164
LeftHand  -0.244104 0.0205437 5.32207
RightShoulder  5.95689 9.62704 39.2664
RightArm  2.46062 -12.4062 33.085
RightForeArm  5.76919 19.4251 5.07832
RightHand  -0.445302 -0.74127 -11.0955
LeftUpLeg  2.82944 1.74807 -6.74562
LeftLeg  11.7548 8.99558 -0.263418
LeftFoot  -13.5372 0.37486 15.1665
LeftToes  1.76439e-010 -1.07097e-011 2.32476e-011
587
root  32.7273 39.4697 15.656 172.612 -32.309 -173.894
RightUpLeg  -20.4253 -4.539 -6.281
RightLeg  29.1284 -5.29007 -3.48068
RightFoot  3.09628 -0.520657 4.27189
RightToes  -5.8209e-011 0 -3.6325e-017
Spine  11.2149 0.209111 4.53052
Spine1  7.50213 1.58942 -4.47576
HEad  48.2893 -18.4367 -179.634
LeftShoulder1  8.93371 -12.2664 -49.452
LeftArm  4.53589 1.83664 -32.705
LeftForeArm  28.7796 -28.1138 -4.50844
LeftHand  -0.244104 0.0205437 5.32207
RightShoulder  5.9657 9.72613 39.0056
RightArm  0.881269 -11.698 32.4747
RightForeArm  7.72029 17.1662 5.60365
RightHand  -0.476221 -0.422256 -11.1361
LeftUpLeg  3.95454 1.79767 -6.63023
LeftLeg  12.8017 6.52195 -0.231728
LeftFoot  -14.761 0.552278 15.4132
LeftToes  1.76439e-010 -1.07097e-011 2.32476e-011
588
root  32.4988 39.3991 14.6531 173.234 -34.7299 -174.332
RightUpLeg  -19.8019 -6.1666 -5.61738
RightLeg  17.1155 -2.7956 -0.94803
RightFoot  3.10497 -0.924286 7.44029
RightToes  -5.8209e-011 0 -3.6325e-017
Spine  10.2191 0.413901 4.16344
Spine1  7.8096 1.80598 -4.4432
HEad  49.001 -17.4643 -178.824
LeftShoulder1  8.88632 -12.2163 -49.3467
LeftArm  3.66211 1.38953 -33.6953
LeftForeArm  30.3388 -30.3506 -4.93247
LeftHand  -0.244104 0.0205437 5.32207
RightShoulder  5.97816 9.79313 38.8779
RightArm  -0.510705 -11.1965 31.8516
RightForeArm  8.88595 15.6719 5.95972
RightHand  -0.488968 -0.343607 -11.263
LeftUpLeg  5.04418 1.90914 -6.38986
LeftLeg  13.1183 4.05682 -0.565972
LeftFoot  -15.6878 0.677046 15.2535
LeftToes  1.76439e-010 -1.07097e-011 2.32476e-011
